<svg xmlns="http://www.w3.org/2000/svg" width="760" height="500" viewBox="0 0 760 500"><g><path d="M-0.03763455466949726 -0.23787815401508328 L760.0715813483841 0.13647165845234552 L759.8116615768398 499.7550557947002 L0.10930345686994053 499.7737798351682" stroke="none" stroke-width="0" fill="#ffffff"/></g><g><path d="M50.911321456870354 33.211222005688555 C54.2761524743794 142.71072574154576, 50.72803143127157 252.72000600067219, 49.06143820107221 468.29452413157145" stroke="#222222" stroke-width="3.2" fill="none"/></g><g><path d="M47.09846226875383 468.3843921127782 C276.8563785541191 460.2675605966878, 505.64452675905073 455.29831565349355, 690.904614522909 453.6781805833183" stroke="#222222" stroke-width="3.2" fill="none"/></g><line x1="50" y1="48" x2="50" y2="28" stroke="#222222" stroke-width="2.4"/><path d="M 50 28 L 44.15 37 M 50 28 L 55.85 37" stroke="#222222" stroke-width="2.4" fill="none"/><line x1="676" y1="456" x2="700" y2="454" stroke="#222222" stroke-width="2.4"/><path d="M 700 454 L 690.5452721186517 448.9176166329511 M 700 454 L 691.5169042329404 460.5772020044162" stroke="#222222" stroke-width="2.4" fill="none"/><g><path d="M112.2093418726978 58.36611287277818 C113.68849881933295 64.63079245772003, 116.34632261995962 81.17825955482252, 119.6881640246807 94.74750343464488 C123.03000542940178 108.31674731446725, 125.42853693687888 123.05423262468408, 132.2603903010243 139.7815761517124 C139.09224366516972 156.50891967874068, 149.8708039537483 178.52940962722408, 160.67928420955317 195.11156459681473 C171.48776446535805 211.69371956640538, 185.05140919024984 225.8550666067964, 197.11127183585353 239.27450596925632 C209.17113448145722 252.69394533171624, 218.19767654130968 262.96065277474924, 233.03846008317538 275.62820077157426 C247.87924362504108 288.2957487683993, 267.8369669536979 304.09247563963, 286.1559730870477 315.27979395020634 C304.4749792203975 326.4671122607827, 320.8810355069905 334.22370291256345, 342.9524968832742 342.7521106350324 C365.0239582595579 351.28051835750136, 392.2392103376211 358.9230706570096, 418.58474134474994 366.45024028501996 C444.9302723518788 373.97740991303033, 472.0227673847634 380.4441401523349, 501.0256829260471 387.9151284030948 C530.0285984673309 395.3861166538547, 563.8873785803714 403.41237989566815, 592.6022345924522 411.27616978957934 C621.317090604533 419.13995968349053, 659.9577757076221 431.13632020628296, 673.3148189985315 435.097867766562" stroke="#7f8790" stroke-width="3" fill="none"/></g><g><path d="M115.51973704044879 212.66818985626517 C231.39800138002863 286.3624699069201, 348.38897077215853 355.95508505512737, 455.9672786286097 419.07282910494956" stroke="#555555" stroke-width="2.3" fill="none" stroke-dasharray="7 7"/></g><g><path d="M284.85786000716024 311.42226701361324 C285.6372176906275 311.1214264264396, 287.10328726814953 310.8005845053186, 287.8626093717851 311.0140743806783 C288.62193147542064 311.227564256038, 289.05131156046167 311.85119871719786, 289.4137926289735 312.7032062657714 C289.77627369748535 313.555213814345, 290.2531920383431 315.1814666745797, 290.0374957828561 316.1261196721196 C289.82179952736914 317.0707726696595, 288.8080561274134 317.75867938040017, 288.1196150960516 318.3711242510108 C287.43117406468974 318.9835691216215, 286.7332595778891 320.04329437794274, 285.90684959468507 319.80078889578357 C285.08043961148104 319.5582834136244, 283.7599672136292 317.80083423795037, 283.16115519682745 316.9160913580557 C282.5623431800257 316.0313484781611, 282.24895154736487 315.14285547728286, 282.31397749387475 314.4923316164156 C282.3790034403846 313.8418077555483, 283.016171330797 313.55394272271366, 283.55131087588677 313.0129481928522 C284.0864504209765 312.47195366299076, 285.25454857131564 311.4391973296857, 285.52481476441324 311.2463644372469 C285.79508095751083 311.05353154480804, 285.18543200814486 311.8692457525871, 285.1729080344724 311.8559508382191" stroke="none" stroke-width="0" fill="#222222"/><path d="M284.84484573793037 310.64776102061603 C285.71562196738194 310.5016692044236, 287.2983230629122 311.13250957926164, 287.9689995636651 311.58579516858845 C288.639676064418 312.03908075791526, 288.6481349841447 312.6233648260253, 288.86890474244785 313.3674745565768 C289.089674500751 314.11158428712827, 289.47773413933805 315.1707025546166, 289.2936181134839 316.0504535518972 C289.1095020876297 316.9302045491778, 288.1957117738975 318.0820995018922, 287.764208587323 318.64598054026044 C287.3327054007486 319.2098615786287, 287.39019512448385 319.58823328214453, 286.70459899403727 319.43373978210684 C286.0190028635907 319.27924628206915, 284.4741672750183 318.2924201873233, 283.65063180464364 317.71901954003437 C282.82709633426896 317.14561889274546, 281.92391846591545 316.8078688940387, 281.7633861717892 315.9933358983733 C281.60285387766294 315.1788029027079, 282.24479903395115 313.7451719690667, 282.687438039886 312.83182156604204 C283.1300770458208 311.9184711630174, 283.86239914349005 310.79566056455104, 284.41922020739804 310.5132334802254 C284.97604127130603 310.2308063958997, 285.8450153619012 310.9619084877603, 286.02836442333387 311.13725906008807" stroke="#222222" stroke-width="2" fill="none"/></g><line x1="286" y1="315" x2="228" y2="255" stroke="#555555" stroke-width="1.4" stroke-dasharray="4 6"/><line x1="286" y1="315" x2="410" y2="285" stroke="#555555" stroke-width="1.4" stroke-dasharray="4 6"/><text x="178" y="248" font-family="ui-monospace, SFMono-Regular, Menlo, Monaco, Consolas, Liberation Mono, monospace" font-size="18" font-weight="400" fill="#555555" text-anchor="start">tangent</text><text x="418" y="280" font-family="ui-monospace, SFMono-Regular, Menlo, Monaco, Consolas, Liberation Mono, monospace" font-size="18" font-weight="400" fill="#555555" text-anchor="start">convex curve</text><text x="74" y="66" font-family="ui-monospace, SFMono-Regular, Menlo, Monaco, Consolas, Liberation Mono, monospace" font-size="20" font-weight="400" fill="#222222" text-anchor="start">Price</text><text x="554" y="485" font-family="ui-monospace, SFMono-Regular, Menlo, Monaco, Consolas, Liberation Mono, monospace" font-size="20" font-weight="400" fill="#222222" text-anchor="start">Yield-to-maturity</text><text x="90" y="430" font-family="ui-monospace, SFMono-Regular, Menlo, Monaco, Consolas, Liberation Mono, monospace" font-size="17" font-weight="400" fill="#555555" text-anchor="start">yields fall  -&gt;  price rises faster</text><text x="382" y="430" font-family="ui-monospace, SFMono-Regular, Menlo, Monaco, Consolas, Liberation Mono, monospace" font-size="17" font-weight="400" fill="#555555" text-anchor="start">yields rise  -&gt;  price falls slower</text></svg>